<svg width="68" height="71" viewBox="0 0 68 71" fill="none" xmlns="http://www.w3.org/2000/svg">
<g clip-path="url(#clip0_4020_156)">
<path fill-rule="evenodd" clip-rule="evenodd" d="M-1585 10C-1585 4.47715 -1580.52 0 -1575 0H325C330.523 0 335 4.47715 335 10V94.99C335 94.9955 334.995 95 334.99 95C334.985 95 334.98 94.9957 334.98 94.9903C334.45 81.6513 323.469 71 310 71H51.519C46.4554 71 42.2961 67.1673 40.8121 62.3261C34.5424 41.8723 15.5081 27 -7 27H-1034C-1056.51 27 -1075.54 41.8723 -1081.81 62.3261C-1083.3 67.1673 -1087.46 71 -1092.52 71H-1560C-1573.47 71 -1584.45 81.6513 -1584.98 94.9903C-1584.98 94.9957 -1584.98 95 -1584.99 95C-1585 95 -1585 94.9955 -1585 94.99V10Z" fill="#7027E2"/>
</g>
<defs>
<clipPath id="clip0_4020_156">
<rect width="68" height="71" fill="white"/>
</clipPath>
</defs>
</svg>
